<svg xmlns="http://www.w3.org/2000/svg" viewBox="0 0 128 128">
  <!-- Background -->
  <rect x="8" y="20" width="112" height="100" rx="8" fill="#1a73e8"/>

  <!-- Calendar top bar -->
  <rect x="8" y="20" width="112" height="24" rx="8" fill="#1557b0"/>
  <rect x="8" y="36" width="112" height="8" fill="#1557b0"/>

  <!-- Calendar rings -->
  <rect x="32" y="12" width="8" height="20" rx="4" fill="#5f6368"/>
  <rect x="88" y="12" width="8" height="20" rx="4" fill="#5f6368"/>

  <!-- Grid lines -->
  <line x1="8" y1="56" x2="120" y2="56" stroke="#ffffff" stroke-width="1" opacity="0.3"/>
  <line x1="8" y1="80" x2="120" y2="80" stroke="#ffffff" stroke-width="1" opacity="0.3"/>
  <line x1="8" y1="104" x2="120" y2="104" stroke="#ffffff" stroke-width="1" opacity="0.3"/>
  <line x1="45" y1="44" x2="45" y2="120" stroke="#ffffff" stroke-width="1" opacity="0.3"/>
  <line x1="83" y1="44" x2="83" y2="120" stroke="#ffffff" stroke-width="1" opacity="0.3"/>

  <!-- Selected slots (checkmarks) -->
  <circle cx="26" cy="68" r="10" fill="#34a853"/>
  <path d="M21 68 L24 71 L31 64" stroke="white" stroke-width="2.5" fill="none" stroke-linecap="round" stroke-linejoin="round"/>

  <circle cx="64" cy="92" r="10" fill="#34a853"/>
  <path d="M59 92 L62 95 L69 88" stroke="white" stroke-width="2.5" fill="none" stroke-linecap="round" stroke-linejoin="round"/>

  <circle cx="102" cy="68" r="10" fill="#34a853"/>
  <path d="M97 68 L100 71 L107 64" stroke="white" stroke-width="2.5" fill="none" stroke-linecap="round" stroke-linejoin="round"/>
</svg>
